<svg width="183" height="172" viewBox="0 0 183 172" fill="none" xmlns="http://www.w3.org/2000/svg">
<g clip-path="url(#clip0_301_2639)">
<path d="M7.60769 25.978C-0.208871 38.499 9.01283 54.0816 21.8812 58.1753C36.2351 62.7412 50.9009 56.4519 62.2347 47.7235C67.5478 43.6373 74.1732 38.6934 76.9083 32.3683C79.997 25.1881 74.6296 19.6159 67.3918 19.8381C52.4947 20.3 48.729 42.6297 48.0929 53.8939C47.2787 68.3018 52.0815 83.3273 64.4333 91.723C76.8812 100.188 92.1211 96.7084 102.943 87.2821C107.898 82.9739 115.62 74.8986 112.8 67.6574C111.652 64.7115 108.707 62.3539 105.468 63.736C102.546 64.9818 101.064 68.7698 100.178 71.5784C98.3039 77.5093 98.1855 84.2166 97.8781 90.3859C97.5403 97.2052 97.6347 104.073 98.7779 110.814C101.362 126.029 110.797 138.844 126.83 141.143C143.956 143.597 159.436 133.95 170.308 121.486C170.908 122.831 171.507 124.169 172.099 125.516C164.542 125.026 156.985 124.536 149.42 124.047C149.608 122.328 149.796 120.608 149.984 118.889C158.692 120.245 167.434 120.873 176.24 120.745C177.883 120.725 179.039 122.88 178.391 124.275C174.862 131.883 171.324 139.484 167.795 147.092C166.386 150.13 161.494 148.275 162.915 145.209C166.454 137.608 169.991 129.999 173.521 122.399C174.237 123.573 174.955 124.756 175.671 125.93C166.864 126.05 158.115 125.431 149.42 124.047C146.134 123.519 146.637 118.659 149.984 118.889C157.537 119.405 165.099 119.928 172.652 120.444C174.454 120.568 175.711 123.029 174.442 124.474C162.375 138.21 145.251 148.81 126.288 146.078C109.082 143.603 97.842 130.546 94.3612 114.042C92.5178 105.284 92.5327 96.1579 93.1196 87.2613C93.6267 79.5488 93.8711 70.8435 98.17 64.1122C101.738 58.5265 108.965 56.3028 114.183 61.161C120.019 66.5893 118.613 74.9313 114.783 81.0517C105.872 95.3034 87.4837 105.226 70.7633 100.093C53.5684 94.8076 44.0132 77.1148 43.232 60.0372C42.583 45.7136 46.1843 20.4313 62.8337 15.6455C69.0137 13.8717 76.7654 15.4589 80.5945 20.9664C85.1571 27.5433 81.6367 35.4639 76.9486 40.8408C64.3577 55.2729 43.5751 67.9683 23.8094 63.1081C15.4125 61.0483 7.91985 55.7695 4.39835 47.7083C1.13048 40.2171 1.47165 31.7422 6.21282 24.9648C6.85465 24.0545 8.19453 25.0426 7.60769 25.978Z" fill="#E87639"/>
</g>
<defs>
<clipPath id="clip0_301_2639">
<rect width="147.851" height="160.669" fill="white" transform="matrix(0.159957 0.987124 0.987124 -0.159957 0 25.7002)"/>
</clipPath>
</defs>
</svg>
